<svg width="32" height="32" viewBox="0 0 32 32" xmlns="http://www.w3.org/2000/svg">
  <path fill="#7D7D7D" d="M25.7,22.4c-0.3,0.9-0.9,2.2-1.8,3.4c-1,1.5-2.1,3-3.8,3s-3.3-1-5.4-1s-3.7,1.1-5.3,1.1
    c-1.8,0.1-3.2-1.8-4.4-3.5C2.6,21.9,1.6,18.3,1.6,14.6c0-5.8,3.8-8.9,7.6-8.9c2,0,3.8,1.3,5,1.3c1.2,0,3.4-1.6,5.8-1.4
    c0.9,0,3.6,0.4,5.3,2.9c-4.4,2.6-3.7,8.6,0.6,10.4C25.7,22.4,25.7,22.4,25.7,22.4z
    M19.7,5.5c0.9-1,1.4-2.4,1.3-3.8c-1.3,0.1-2.8,0.9-3.7,1.9c-0.8,0.9-1.5,2.3-1.3,3.7C17.4,7.4,18.8,6.5,19.7,5.5z"/>
</svg>